<svg xmlns="http://www.w3.org/2000/svg" viewBox="0 0 64 64">
  <!-- 조디악 블리츠 파비콘 — 12지신 고리(금색 점 12개) 안의 스피드 번개 -->
  <defs>
    <linearGradient id="bolt" x1="0" y1="0" x2="0" y2="1">
      <stop offset="0" stop-color="#fff3c4"/>
      <stop offset="0.55" stop-color="#ffcf4d"/>
      <stop offset="1" stop-color="#ff9d2e"/>
    </linearGradient>
    <linearGradient id="bg" x1="0" y1="0" x2="1" y2="1">
      <stop offset="0" stop-color="#16204a"/>
      <stop offset="1" stop-color="#0a1022"/>
    </linearGradient>
  </defs>
  <rect x="1" y="1" width="62" height="62" rx="15" fill="url(#bg)" stroke="#2a3a6a" stroke-width="2"/>
  <g fill="#ffcf4d">
    <circle cx="32" cy="8.5" r="2.6"/>
    <circle cx="43.8" cy="11.7" r="2.6" opacity="0.92"/>
    <circle cx="52.3" cy="20.2" r="2.6" opacity="0.84"/>
    <circle cx="55.5" cy="32" r="2.6" opacity="0.76"/>
    <circle cx="52.3" cy="43.8" r="2.6" opacity="0.68"/>
    <circle cx="43.8" cy="52.3" r="2.6" opacity="0.6"/>
    <circle cx="32" cy="55.5" r="2.6" opacity="0.52"/>
    <circle cx="20.2" cy="52.3" r="2.6" opacity="0.44"/>
    <circle cx="11.7" cy="43.8" r="2.6" opacity="0.38"/>
    <circle cx="8.5" cy="32" r="2.6" opacity="0.44"/>
    <circle cx="11.7" cy="20.2" r="2.6" opacity="0.6"/>
    <circle cx="20.2" cy="11.7" r="2.6" opacity="0.76"/>
  </g>
  <path d="M36.5 15 L22 35.5 L30.5 35.5 L27.5 49 L42 28.5 L33.5 28.5 Z" fill="url(#bolt)" stroke="#7a4d00" stroke-width="1.4" stroke-linejoin="round"/>
</svg>
